<svg id="icons" xmlns="http://www.w3.org/2000/svg" viewBox="0 0 64 64"><title>academy-cap</title><g id="academy-cap"><rect x="54" y="43" width="2" height="2" fill="#c12d2d"/><path d="M18,29V47c0,3.31,6.27,6,14,6s14-2.69,14-6V29" fill="#2b7fb9"/><circle cx="32" cy="33" r="14" fill="#3598dc"/><polyline points="46 47 46 41 46 29" fill="none" stroke="#37464f" stroke-miterlimit="10" stroke-width="2"/><path d="M18,47c0,3.31,6.27,6,14,6s14-2.69,14-6" fill="none" stroke="#37464f" stroke-miterlimit="10" stroke-width="2"/><polyline points="18 29 18 41 18 47" fill="none" stroke="#37464f" stroke-miterlimit="10" stroke-width="2"/><polygon points="32 35 2 23 32 11 62 23 32 35" fill="#3dbbe8"/><polygon points="7.38 23 32 13.15 56.62 23 32 32.85 7.38 23" fill="#3598dc"/><polygon points="32 35 2 23 32 11 62 23 32 35" fill="none" stroke="#37464f" stroke-linejoin="round" stroke-width="2"/><polyline points="32 23 34 23 55 25 55 43" fill="none" stroke="#e74b3c" stroke-linejoin="round" stroke-width="2"/><ellipse cx="32" cy="23" rx="2" ry="1" fill="#37464f"/></g></svg>