<svg version="1.1" viewBox="0 0 281 304" width="500" height="500">
  <title>New Beginnings logo</title>
  <g>
    <path d="M 20.652473,302.84747 C 2.6627596,301.87434 -1.9406775,300.63887 8.6268737,299.62004 18.098642,298.70685 60.848461,297.05358 75.75,297.02417 82.4875,297.01088 88,296.78671 88,296.52603 c 0,-0.26068 -1.287721,-3.74818 -2.861603,-7.75 C 76.781459,267.52733 69.473131,239.97867 65.964436,216.5 63.270733,198.4749 62.300863,166.83518 63.907234,149.38857 68.452185,100.02638 86.978072,54.894157 117.89376,17.868174 l 8.04232,-9.631826 7.78196,-2.0701822 c 14.22633,-3.7845336 17.2329,-4.3989701 18.72444,-3.826612 1.14082,0.4377739 -0.36581,3.6106039 -6.58342,13.8640692 -35.53351,58.598346 -51.731098,116.543207 -47.940501,171.501227 2.023356,29.33566 7.151901,53.89975 18.621981,89.19339 L 123.07341,297 h 17.33249 17.33248 l 4.68471,-12.45234 C 194.70685,198.73478 195.51267,158.42165 166.64176,73.5 163.08906,63.05 158.40621,49.967025 156.23543,44.426723 l -3.94689,-10.073278 8.54943,-4.926722 c 4.70219,-2.709698 10.70602,-6.16976 13.34186,-7.689026 l 4.79242,-2.762304 6.00516,11.979543 C 211.42167,83.707917 223.96329,139.34593 220.94118,190.5 c -1.83394,31.04233 -7.4562,57.17991 -19.84323,92.25 l -5.03321,14.25 11.71763,0.0242 c 6.4447,0.0133 22.51763,0.45371 35.71763,0.9787 43.43003,1.72729 47.94152,3.1668 15.44848,4.92928 -23.08804,1.25233 -214.839129,1.1842 -238.296007,-0.0847 z" />
  </g>
</svg>
